<svg xmlns="http://www.w3.org/2000/svg" viewBox="0 0 32 32" shape-rendering="crispEdges">
<rect width="32" height="32" fill="#4A90D9"/>
<rect x="11" y="3" width="10" height="2" fill="#8B6914"/>
<rect x="10" y="5" width="12" height="2" fill="#8B6914"/>
<rect x="10" y="5" width="12" height="1" fill="#A0782A"/>
<rect x="11" y="7" width="10" height="1" fill="#FFDBB4"/>
<rect x="10" y="8" width="12" height="1" fill="#FFDBB4"/>
<rect x="9" y="9" width="14" height="1" fill="#FFDBB4"/>
<rect x="9" y="10" width="14" height="1" fill="#FFDBB4"/>
<rect x="11" y="10" width="3" height="1" fill="#3D2B1F"/>
<rect x="18" y="10" width="3" height="1" fill="#3D2B1F"/>
<rect x="9" y="11" width="14" height="1" fill="#FFDBB4"/>
<rect x="9" y="12" width="14" height="1" fill="#FFDBB4"/>
<rect x="14" y="12" width="4" height="1" fill="#E8A88A"/>
<rect x="10" y="13" width="12" height="1" fill="#FFDBB4"/>
<rect x="13" y="13" width="6" height="1" fill="#D4756B"/>
<rect x="11" y="14" width="10" height="1" fill="#FFDBB4"/>
<rect x="12" y="15" width="8" height="1" fill="#FFDBB4"/>
<rect x="13" y="16" width="6" height="1" fill="#FFDBB4"/>
<rect x="13" y="17" width="6" height="1" fill="#FFDBB4"/>
<rect x="8" y="18" width="16" height="2" fill="#3B7DD8"/>
<rect x="6" y="20" width="20" height="2" fill="#3B7DD8"/>
<rect x="5" y="22" width="22" height="2" fill="#3B7DD8"/>
<rect x="4" y="24" width="24" height="8" fill="#3B7DD8"/>
</svg>